<?xml version="1.0" standalone="no"?><!DOCTYPE svg PUBLIC "-//W3C//DTD SVG 1.1//EN" "http://www.w3.org/Graphics/SVG/1.1/DTD/svg11.dtd"><svg t="1747377111968" class="icon" viewBox="0 0 1024 1024" version="1.1" xmlns="http://www.w3.org/2000/svg" p-id="8150" xmlns:xlink="http://www.w3.org/1999/xlink" width="200" height="200"><path d="M870.509714 247.954286a96.914286 96.914286 0 0 1 96.914286 96.914285v364.946286a96.914286 96.914286 0 0 1-96.914286 96.914286h-126.72l-46.994285 65.243428a31.085714 31.085714 0 0 1-39.789715 9.289143l-3.584-2.230857a31.085714 31.085714 0 0 1-6.729143-6.582857l-49.115428-65.755429h-122.514286a96.914286 96.914286 0 0 1-96.694857-90.770285l-0.219429-6.107429V637.44h47.542858v72.338286c0 27.245714 22.125714 49.371429 49.371428 49.371428h130.742857a31.085714 31.085714 0 0 1 24.905143 12.434286l40.594286 54.308571 38.838857-53.833142a31.085714 31.085714 0 0 1 20.992-12.617143l4.242286-0.292572h135.131428a49.371429 49.371429 0 0 0 49.371429-49.371428V344.868571a49.371429 49.371429 0 0 0-49.371429-49.371428H462.555429a49.371429 49.371429 0 0 0-49.371429 49.371428v41.069715h-47.542857V344.868571a96.914286 96.914286 0 0 1 96.914286-96.914285h407.954285zM661.942857 644.754286c10.752 0 20.114286 3.949714 28.050286 11.885714 7.899429 7.899429 11.885714 17.408 11.885714 28.525714 0 10.752-3.876571 20.114286-11.666286 28.050286-7.753143 7.899429-17.188571 11.885714-28.269714 11.885714-10.788571 0-19.968-3.986286-27.574857-11.885714a39.131429 39.131429 0 0 1-11.410286-28.050286c0-11.117714 3.803429-20.626286 11.410286-28.525714 7.606857-7.936 16.822857-11.885714 27.574857-11.885714zM307.529143 324.169143a3.657143 3.657143 0 0 1 2.742857 3.035428c8.228571 51.748571 27.392 92.635429 57.417143 122.660572 29.622857 29.622857 71.314286 48.64 125.184 57.124571a3.474286 3.474286 0 0 1 2.998857 4.096 3.657143 3.657143 0 0 1-2.925714 2.925715c-53.028571 9.069714-94.281143 28.452571-123.830857 58.002285-29.622857 29.622857-49.005714 69.449143-58.148572 119.515429a3.547429 3.547429 0 0 1-4.278857 2.816 3.657143 3.657143 0 0 1-2.852571-2.998857c-8.777143-50.395429-28.013714-90.404571-57.6-120.027429-29.622857-29.622857-68.096-48.822857-115.419429-57.673143a3.474286 3.474286 0 0 1-2.889143-4.169143 3.657143 3.657143 0 0 1 2.852572-2.852571c44.361143-8.448 81.188571-27.428571 110.555428-56.758857 30.061714-30.098286 50.688-71.094857 61.805714-122.989714a3.547429 3.547429 0 0 1 4.388572-2.706286z m364.434286 27.721143c20.918857 0 39.753143 3.547429 56.576 10.678857 16.822857 7.131429 29.988571 17.371429 39.68 30.683428s14.518857 29.001143 14.518857 47.067429c0 12.982857-2.450286 24.502857-7.387429 34.450286a97.792 97.792 0 0 1-17.554286 25.453714c-6.838857 6.948571-16.091429 15.213714-27.830857 24.722286-10.459429 8.850286-18.724571 16.237714-24.722285 22.089143-6.034286 5.851429-11.117714 12.836571-15.213715 20.918857a58.258286 58.258286 0 0 0-6.217143 26.88c0 5.705143 0.365714 9.984 0.987429 12.8h-53.248a100.717714 100.717714 0 0 1-5.705143-32.768c0-16.493714 4.096-30.208 12.361143-41.142857 8.228571-10.934857 20.114286-22.747429 35.657143-35.401143 12.068571-9.837714 20.918857-18.249143 26.624-25.234286 5.705143-6.948571 8.557714-15.030857 8.557714-24.210286a29.586286 29.586286 0 0 0-11.666286-24.722285c-7.753143-6.034286-18.139429-9.033143-31.122285-9.033143-30.134857 0-52.48 17.737143-67.035429 53.248l-53.76-31.853715c10.496-27.282286 26.697143-48.201143 48.749714-62.756571 22.052571-14.592 47.945143-21.869714 77.750858-21.869714z m-482.742858-212.772572c10.386286 33.792 26.624 61.805714 48.749715 83.894857 22.089143 22.089143 50.066286 38.326857 83.894857 48.713143-36.498286 7.716571-65.828571 22.674286-87.917714 44.763429-22.089143 22.089143-37.010286 51.382857-44.726858 87.881143-10.166857-34.011429-26.331429-62.098286-48.420571-84.187429-22.125714-22.125714-50.176-38.253714-84.224-48.457143 35.254857-8.96 63.926857-24.502857 86.016-46.592 22.125714-22.125714 37.668571-50.797714 46.628571-86.016z m1.609143 84.918857l-2.194285 3.218286a196.242286 196.242286 0 0 1-43.885715 43.922286l-2.889143 1.974857 8.045715 6.107429a212.114286 212.114286 0 0 1 8.557714 7.314285l8.192 7.753143c5.302857 5.302857 10.313143 10.861714 15.030857 16.713143l4.608 5.997714 2.998857-4.352c3.803429-5.229714 7.826286-10.24 12.141715-15.067428l6.656-7.021715c6.838857-6.838857 14.189714-13.092571 22.089142-18.797714l4.717715-3.254857-6.107429-4.681143a215.186286 215.186286 0 0 1-8.557714-7.314286l-8.118857-7.68a214.454857 214.454857 0 0 1-15.030857-16.713142l-6.217143-8.118858z" p-id="8151"></path></svg>