<?xml version="1.0" standalone="no"?><!DOCTYPE svg PUBLIC "-//W3C//DTD SVG 1.1//EN" "http://www.w3.org/Graphics/SVG/1.1/DTD/svg11.dtd"><svg t="1747377018206" class="icon" viewBox="0 0 1024 1024" version="1.1" xmlns="http://www.w3.org/2000/svg" p-id="8007" xmlns:xlink="http://www.w3.org/1999/xlink" width="200" height="200"><path d="M506.311111 0a506.311111 506.311111 0 0 1 0 1012.622222 51.2 51.2 0 0 1 0-102.4 403.911111 403.911111 0 1 0-279.324444-112.128 51.2 51.2 0 0 1 11.776 56.888889l-3.185778 6.314667-75.377778 126.350222a51.2 51.2 0 0 1-90.908444-46.762667l2.958222-5.688889 55.409778-92.899555-8.078223-9.102222A504.376889 504.376889 0 0 1 0.341333 524.515556L0 506.311111A506.311111 506.311111 0 0 1 506.311111 0z m-10.126222 301.738667l3.527111 5.973333 95.402667 183.808v-22.755556a51.2 51.2 0 0 1 44.828444-50.744888l6.428445-0.398223a51.2 51.2 0 0 1 50.801777 44.771556l0.398223 6.428444v232.561778c0 51.370667-66.104889 69.632-93.297778 29.184l-3.413334-5.632L456.817778 447.260444l-128.056889 275.683556a51.2 51.2 0 0 1-62.008889 27.192889l-6.030222-2.332445a51.2 51.2 0 0 1-27.192889-62.008888l2.332444-6.030223L407.893333 309.703111a51.2 51.2 0 0 1 88.348445-7.964444z m145.180444-60.472889a65.024 65.024 0 1 1 0 129.991111 65.024 65.024 0 0 1 0-129.991111z" fill="#FF4D0D" p-id="8008"></path></svg>