<?xml version="1.0" standalone="no"?><!DOCTYPE svg PUBLIC "-//W3C//DTD SVG 1.1//EN" "http://www.w3.org/Graphics/SVG/1.1/DTD/svg11.dtd"><svg t="1745287251884" class="icon" viewBox="0 0 1024 1024" version="1.1" xmlns="http://www.w3.org/2000/svg" p-id="14622" xmlns:xlink="http://www.w3.org/1999/xlink" width="64" height="64"><path d="M512 0a512 512 0 1 0 512 512 512 512 0 0 0-512-512z m0 960a448 448 0 1 1 448-448 448 448 0 0 1-448 448z" p-id="14623" fill="#ffffff"></path><path d="M384 480m-64 0a64 64 0 1 0 128 0 64 64 0 1 0-128 0Z" p-id="14624" fill="#ffffff"></path><path d="M640 480m-64 0a64 64 0 1 0 128 0 64 64 0 1 0-128 0Z" p-id="14625" fill="#ffffff"></path><path d="M672 256h-320a224 224 0 0 0 0 448h49.92l87.68 87.04a31.36 31.36 0 0 0 22.4 8.96 29.44 29.44 0 0 0 22.4-8.96L622.72 704h49.28a224 224 0 0 0 0-448z m0 384h-64a33.28 33.28 0 0 0-23.04 8.96L512 723.2l-74.24-73.6a30.08 30.08 0 0 0-22.4-9.6h-64a160 160 0 0 1 0-320h320a160 160 0 0 1 0 320z" p-id="14626" fill="#ffffff"></path></svg>