<?xml version="1.0" standalone="no"?><!DOCTYPE svg PUBLIC "-//W3C//DTD SVG 1.1//EN" "http://www.w3.org/Graphics/SVG/1.1/DTD/svg11.dtd"><svg t="1744941619748" class="icon" viewBox="0 0 1024 1024" version="1.1" xmlns="http://www.w3.org/2000/svg" p-id="9236" xmlns:xlink="http://www.w3.org/1999/xlink" width="64" height="64"><path d="M576 938.666667h-128a21.333333 21.333333 0 0 1 0-42.666667h128a21.333333 21.333333 0 1 1 0 42.666667z m42.666667-85.333334h-213.333334a21.333333 21.333333 0 1 1 0-42.666666h213.333334a21.333333 21.333333 0 0 1 0 42.666666zM512 768a255.189333 255.189333 0 1 1 99.626667-20.138667A254.336 254.336 0 0 1 512 768z m-52.522667-204.8h54.144l12.8 32a26.24 26.24 0 0 0 6.144 9.216 15.616 15.616 0 0 0 11.178667 3.626667h1.066667a18.517333 18.517333 0 0 0 13.226666-4.650667 13.653333 13.653333 0 0 0 1.749334-14.805333l-55.466667-160.810667a15.488 15.488 0 0 0-5.717333-7.594667 22.784 22.784 0 0 0-23.722667 0 15.445333 15.445333 0 0 0-5.76 7.594667l-54.997333 160.384c-2.474667 7.253333-2.090667 12.458667 1.194666 15.445333a18.816 18.816 0 0 0 13.184 4.522667 18.176 18.176 0 0 0 12.544-3.882667 25.898667 25.898667 0 0 0 6.656-10.282666l11.733334-30.634667z m138.410667-146.389333a15.104 15.104 0 0 0-17.066667 17.066666v157.482667a18.133333 18.133333 0 0 0 3.882667 12.544 17.066667 17.066667 0 0 0 13.184 4.266667 18.218667 18.218667 0 0 0 13.482667-4.266667 17.834667 17.834667 0 0 0 4.266666-12.8v-157.354667a16.213333 16.213333 0 0 0-4.522666-13.056 20.181333 20.181333 0 0 0-13.226667-3.712z m319.445333 119.338666l-42.666666-0.298666a21.333333 21.333333 0 0 1 0-42.666667l42.666666 0.298667a20.992 20.992 0 0 1 14.976 6.272 21.333333 21.333333 0 0 1-15.104 36.394666z m-768-2.816h-42.666666a21.333333 21.333333 0 1 1 0-42.666666h42.666666a21.333333 21.333333 0 1 1 0 42.666666z m357.888 0h-41.088l20.522667-66.133333 20.522667 66.133333zM255.573333 276.949333a21.333333 21.333333 0 0 1-15.104-6.229333l-30.122666-30.165333a20.949333 20.949333 0 0 1-6.229334-14.933334 21.333333 21.333333 0 0 1 6.229334-15.146666 20.949333 20.949333 0 0 1 15.018666-6.229334 21.333333 21.333333 0 0 1 15.104 6.229334l30.122667 30.122666a21.333333 21.333333 0 0 1 0 30.122667 20.949333 20.949333 0 0 1-15.018667 6.229333z m512.981334 0a21.333333 21.333333 0 0 1-15.146667-6.186666 20.949333 20.949333 0 0 1-6.229333-14.976 21.333333 21.333333 0 0 1 6.229333-15.146667l30.122667-30.122667a21.333333 21.333333 0 0 1 15.104-6.186666 21.333333 21.333333 0 0 1 15.018666 36.309333l-30.122666 30.122667a20.864 20.864 0 0 1-14.976 6.058666zM512 170.666667a21.333333 21.333333 0 0 1-21.333333-21.333334v-42.666666a21.333333 21.333333 0 1 1 42.666666 0v42.666666a21.333333 21.333333 0 0 1-21.333333 21.333334z" p-id="9237" fill="#1296db"></path></svg>