<?xml version="1.0" standalone="no"?><!DOCTYPE svg PUBLIC "-//W3C//DTD SVG 1.1//EN" "http://www.w3.org/Graphics/SVG/1.1/DTD/svg11.dtd"><svg t="1744708484899" class="icon" viewBox="0 0 1024 1024" version="1.1" xmlns="http://www.w3.org/2000/svg" p-id="32716" xmlns:xlink="http://www.w3.org/1999/xlink" width="64" height="64"><path d="M702.464 105.088a30.976 30.976 0 0 1 0 43.776L627.328 224H723.2a140.8 140.8 0 0 1 140.8 140.8v140.8a140.8 140.8 0 0 1-140.8 140.8H300.8a140.8 140.8 0 0 1-140.8-140.8V364.8a140.8 140.8 0 0 1 140.8-140.8h139.84l-47.552-47.552a30.976 30.976 0 1 1 43.84-43.776L528.256 224h11.52l118.848-118.912a30.976 30.976 0 0 1 43.84 0zM437.376 367.552a30.976 30.976 0 0 0-61.952 0v135.168a30.976 30.976 0 1 0 61.952 0V367.552zM617.6 336.64a30.976 30.976 0 0 0-30.976 30.976v135.168a30.976 30.976 0 0 0 61.952 0V367.552a30.976 30.976 0 0 0-30.976-30.976zM557.184 716.8c36.928 0 76.672 7.296 106.752 24.128 56.128 27.328 94.464 75.648 94.464 130.304v9.472c0 47.296-87.616 47.296-199.872 47.296H465.472c-112.256 0-199.872-1.088-199.872-47.36v-9.408c0-54.656 36.928-102.976 91.712-131.328 30.08-15.808 69.76-23.104 106.752-23.104h93.12z" p-id="32717" fill="#515151"></path></svg>