<?xml version="1.0" standalone="no"?><!DOCTYPE svg PUBLIC "-//W3C//DTD SVG 1.1//EN" "http://www.w3.org/Graphics/SVG/1.1/DTD/svg11.dtd"><svg t="1744707990814" class="icon" viewBox="0 0 1024 1024" version="1.1" xmlns="http://www.w3.org/2000/svg" p-id="6698" xmlns:xlink="http://www.w3.org/1999/xlink" width="64" height="64"><path d="M513.706667 484.693333c-61.44 0-112.64-49.493333-114.346667-110.933333-85.333333-13.653333-168.96-40.96-244.053333-81.92V904.533333c0 6.826667 3.413333 13.653333 8.533333 18.773334 5.12 5.12 11.946667 8.533333 18.773333 8.533333h658.773334c15.36 0 27.306667-11.946667 27.306666-27.306667V290.133333c-75.093333 42.666667-157.013333 71.68-240.64 87.04-3.413333 59.733333-52.906667 109.226667-114.346666 107.52z m29.013333 312.32h-256v-37.546666h256v37.546666z m66.56-92.16H286.72v-35.84h322.56v35.84z m131.413333-95.573333H286.72v-35.84h453.973333v35.84z m100.693334-517.12H182.613333c-15.36 0-27.306667 11.946667-27.306666 27.306667v121.173333c78.506667 44.373333 162.133333 75.093333 250.88 90.453333 18.773333-42.666667 59.733333-69.973333 105.813333-69.973333s87.04 27.306667 105.813333 69.973333c88.746667-15.36 174.08-47.786667 249.173334-95.573333V119.466667c0-6.826667-1.706667-13.653333-6.826667-18.773334-5.12-5.12-11.946667-8.533333-18.773333-8.533333z m0 0" fill="#515151" p-id="6699"></path></svg>