<?xml version="1.0" standalone="no"?><!DOCTYPE svg PUBLIC "-//W3C//DTD SVG 1.1//EN" "http://www.w3.org/Graphics/SVG/1.1/DTD/svg11.dtd"><svg t="1747643695589" class="icon" viewBox="0 0 1024 1024" version="1.1" xmlns="http://www.w3.org/2000/svg" p-id="31467" xmlns:xlink="http://www.w3.org/1999/xlink" width="200" height="200"><path d="M936.746667 496.64A433.706667 433.706667 0 0 0 512 170.666667 433.706667 433.706667 0 0 0 87.253333 496.64a62.293333 62.293333 0 0 0 0 30.72A433.706667 433.706667 0 0 0 512 853.333333a433.706667 433.706667 0 0 0 424.746667-325.973333 62.293333 62.293333 0 0 0 0-30.72zM512 768A347.093333 347.093333 0 0 1 173.44 512 347.306667 347.306667 0 0 1 512 256a347.093333 347.093333 0 0 1 338.56 256A347.306667 347.306667 0 0 1 512 768z" fill="#020202" p-id="31468"></path><path d="M512 341.333333a170.666667 170.666667 0 1 0 170.666667 170.666667 170.666667 170.666667 0 0 0-170.666667-170.666667z m0 256a85.333333 85.333333 0 1 1 85.333333-85.333333 85.333333 85.333333 0 0 1-85.333333 85.333333z" fill="#020202" p-id="31469"></path></svg>