<?xml version="1.0" standalone="no"?><!DOCTYPE svg PUBLIC "-//W3C//DTD SVG 1.1//EN" "http://www.w3.org/Graphics/SVG/1.1/DTD/svg11.dtd"><svg t="1747643581515" class="icon" viewBox="0 0 1024 1024" version="1.1" xmlns="http://www.w3.org/2000/svg" p-id="24369" xmlns:xlink="http://www.w3.org/1999/xlink" width="200" height="200"><path d="M512 373.312a138.688 138.688 0 1 0 0 277.376 138.688 138.688 0 0 0 0-277.376zM437.312 512a74.688 74.688 0 1 1 149.376 0 74.688 74.688 0 0 1-149.376 0z" fill="#ffffff" p-id="24370"></path><path d="M512 224c-128.96 0-242.88 69.632-322.112 135.36A912.96 912.96 0 0 0 69.12 480.832a520.256 520.256 0 0 0-6.912 8.64l-1.856 2.432-0.512 0.64-0.128 0.192-0.064 0.128a32.064 32.064 0 0 0 0 38.336l0.192 0.256 0.512 0.64 1.856 2.432c1.6 2.048 3.84 4.928 6.912 8.64a913.28 913.28 0 0 0 120.704 121.472C269.184 730.368 383.04 800 512 800c128.96 0 242.816-69.632 322.112-135.36a913.472 913.472 0 0 0 120.704-121.472l6.912-8.64 1.856-2.432 0.512-0.64 0.128-0.192 0.064-0.128a32.064 32.064 0 0 0 0-38.336l-0.192-0.256-0.512-0.64-1.856-2.432a793.6 793.6 0 0 0-32.832-38.912c-22.336-24.832-54.72-57.984-94.72-91.2C754.752 293.632 640.896 224 512 224zM938.688 512l25.6 19.2-25.6-19.2z m25.6-19.2l-25.6 19.2 25.6-19.2zM85.312 512l-25.6-19.2 25.6 19.2z m-25.6 19.2l25.6-19.2-25.6 19.2z m82.944-0.64c-6.272-6.976-11.712-13.248-16.192-18.56a848.96 848.96 0 0 1 104.32-103.36C305.792 346.368 405.248 288 511.936 288c106.688 0 206.08 58.368 281.28 120.64A848.704 848.704 0 0 1 897.6 512a848.704 848.704 0 0 1-104.32 103.36C718.144 677.632 618.688 736 512 736c-106.688 0-206.08-58.368-281.28-120.64-37.12-30.72-67.2-61.632-88.064-84.736z" fill="#ffffff" p-id="24371"></path></svg>