<?xml version="1.0" standalone="no"?><!DOCTYPE svg PUBLIC "-//W3C//DTD SVG 1.1//EN" "http://www.w3.org/Graphics/SVG/1.1/DTD/svg11.dtd"><svg t="1744708638061" class="icon" viewBox="0 0 1024 1024" version="1.1" xmlns="http://www.w3.org/2000/svg" p-id="42001" xmlns:xlink="http://www.w3.org/1999/xlink" width="64" height="64"><path d="M417.856 104a80 80 0 0 1 59.2 26.176L512 168.672l34.976-38.496a80 80 0 0 1 53.056-25.92l6.112-0.256H848a80 80 0 0 1 80 80v608a80 80 0 0 1-80 80h-234.784l-42.016 46.24a80 80 0 0 1-108.64 9.088l-4.384-3.712a80 80 0 0 1-5.376-5.376l-42.048-46.24H176a80 80 0 0 1-79.84-74.752L96 792v-608a80 80 0 0 1 80-80z m-7.104 96H192v576h225.856a80 80 0 0 1 54.88 21.824l4.288 4.352L512 840.64l34.976-38.464a80 80 0 0 1 53.056-25.92l6.112-0.256H832v-576h-218.784L571.2 246.24l-2.624 2.752-2.752 2.624a80 80 0 0 1-113.024-5.376L410.752 200zM448 361.728a32 32 0 0 1 16.96 4.864l163.616 102.272a32 32 0 0 1 0 54.272l-163.616 102.272a32 32 0 0 1-48.96-27.136v-204.544a32 32 0 0 1 32-32z" fill="#515151" p-id="42002"></path></svg>