<?xml version="1.0" standalone="no"?><!DOCTYPE svg PUBLIC "-//W3C//DTD SVG 1.1//EN" "http://www.w3.org/Graphics/SVG/1.1/DTD/svg11.dtd"><svg t="1747643401607" class="icon" viewBox="0 0 1024 1024" version="1.1" xmlns="http://www.w3.org/2000/svg" p-id="18920" xmlns:xlink="http://www.w3.org/1999/xlink" width="200" height="200"><path d="M894.506667 129.024a149.205333 149.205333 0 0 1 0 210.944L304.042667 930.474667a24.874667 24.874667 0 0 1-17.578667 7.253333H135.509333a49.749333 49.749333 0 0 1-49.706666-49.749333v-150.912c0-6.613333 2.56-12.928 7.253333-17.621334L683.52 129.024a149.205333 149.205333 0 0 1 210.986667 0zM841.813333 181.717333a74.581333 74.581333 0 0 0-102.314666-2.986666l-3.2 2.986666-573.013334 573.013334a9.941333 9.941333 0 0 0-2.901333 7.04v91.477333c0 5.461333 4.437333 9.941333 9.941333 9.941333h91.392a9.941333 9.941333 0 0 0 7.04-2.944L841.813333 287.274667a74.581333 74.581333 0 0 0 2.986667-102.314667l-2.986667-3.2z" fill="#333333" p-id="18921"></path><path d="M630.826667 181.76l210.944 210.944-52.736 52.736-210.944-210.944zM524.970667 864.085333h402.773333c6.656 0 9.984 3.285333 9.984 9.941334v54.698666c0 6.613333-3.328 9.941333-9.984 9.941334h-402.773333c-6.656 0-9.941333-3.328-9.941334-9.941334v-54.698666c0-6.656 3.285333-9.941333 9.941334-9.941334zM723.882667 714.88h203.861333c6.656 0 9.984 3.328 9.984 9.941333v54.698667c0 6.656-3.328 9.941333-9.984 9.941333h-203.861333c-6.656 0-9.941333-3.285333-9.941334-9.941333v-54.698667c0-6.613333 3.285333-9.941333 9.941334-9.941333z" fill="#333333" p-id="18922"></path></svg>