<?xml version="1.0" standalone="no"?><!DOCTYPE svg PUBLIC "-//W3C//DTD SVG 1.1//EN" "http://www.w3.org/Graphics/SVG/1.1/DTD/svg11.dtd"><svg t="1744964331646" class="icon" viewBox="0 0 1024 1024" version="1.1" xmlns="http://www.w3.org/2000/svg" p-id="9108" xmlns:xlink="http://www.w3.org/1999/xlink" width="64" height="64"><path d="M272 192h340c44.184 0 80 35.818 80 80v378c0 44.184-35.816 80-80 80H272c-44.182 0-80-35.816-80-80V272c0-44.182 35.818-80 80-80z" fill="#DFECFD" p-id="9109"></path><path d="M464 294h288c44.184 0 80 35.818 80 80v378c0 44.184-35.816 80-80 80H464c-44.182 0-80-35.816-80-80V374c0-44.182 35.818-80 80-80z" fill="#4988FD" p-id="9110"></path><path d="M752 832H464c-44.112 0-80-35.888-80-80V374c0-44.112 35.888-80 80-80h288c44.112 0 80 35.888 80 80v378c0 44.112-35.888 80-80 80zM464 374v378h288l0.05-0.002L752 374H464z" fill="#4888FD" p-id="9111"></path><path d="M561.376 485.328h-79.642c-11.046 0-20-8.954-20-20s8.954-20 20-20h79.642c11.044 0 20 8.954 20 20s-8.956 20-20 20z" fill="#FFFFFF" p-id="9112"></path><path d="M522.804 523.9c-11.046 0-20-8.956-20-20v-79.644c0-11.046 8.954-20 20-20 11.044 0 20 8.954 20 20V503.9c0 11.046-8.954 20-20 20z m219.822-38.572h-87.5c-11.044 0-20-8.954-20-20s8.956-20 20-20h87.5c11.044 0 20 8.954 20 20s-8.956 20-20 20z" fill="#FFFFFF" p-id="9113"></path><path d="M732 668H484c-11.046 0-20-8.956-20-20s8.954-20 20-20h248c11.044 0 20 8.956 20 20s-8.956 20-20 20z m0 80H484c-11.046 0-20-8.956-20-20s8.954-20 20-20h248c11.044 0 20 8.956 20 20s-8.956 20-20 20z" fill="#DFECFD" p-id="9114"></path></svg>