<?xml version="1.0" standalone="no"?><!DOCTYPE svg PUBLIC "-//W3C//DTD SVG 1.1//EN" "http://www.w3.org/Graphics/SVG/1.1/DTD/svg11.dtd"><svg t="1745477577505" class="icon" viewBox="0 0 1024 1024" version="1.1" xmlns="http://www.w3.org/2000/svg" p-id="4439" xmlns:xlink="http://www.w3.org/1999/xlink" width="64" height="64"><path d="M452.16 157.056c20.928-54.976 98.688-54.976 119.68 0l71.168 186.88a64 64 0 0 0 36.992 37.12l186.88 71.104c55.04 20.928 55.04 98.688 0 119.68l-186.88 71.168a64 64 0 0 0-36.992 36.992l-71.168 186.88c-20.992 55.04-98.752 55.04-119.68 0l-71.168-186.88a64 64 0 0 0-36.992-36.992l-186.88-71.168c-55.04-20.992-55.04-98.752 0-119.68l186.88-71.168a64 64 0 0 0 36.992-36.992l71.168-186.88zM807.04 110.848c6.016-26.624 43.968-26.624 49.92 0l6.784 30.08a25.6 25.6 0 0 0 19.328 19.328l30.08 6.784c26.624 6.016 26.624 43.904 0 49.92l-30.08 6.784a25.6 25.6 0 0 0-19.328 19.328l-6.784 30.08c-6.016 26.624-43.968 26.624-49.92 0l-6.784-30.08a25.6 25.6 0 0 0-19.328-19.328l-30.08-6.784c-26.624-6.016-26.624-43.904 0-49.92l30.08-6.784a25.6 25.6 0 0 0 19.328-19.328l6.784-30.08zM167.04 750.848c6.016-26.624 43.904-26.624 49.92 0l6.784 30.08a25.6 25.6 0 0 0 19.328 19.328l30.08 6.784c26.624 6.016 26.624 43.968 0 49.92l-30.08 6.784a25.6 25.6 0 0 0-19.328 19.328l-6.784 30.08c-6.016 26.624-43.904 26.624-49.92 0l-6.784-30.08a25.6 25.6 0 0 0-19.328-19.328l-30.08-6.784c-26.624-6.016-26.624-43.968 0-49.92l30.08-6.784a25.6 25.6 0 0 0 19.328-19.328l6.784-30.08z" p-id="4440" fill="#ffffff"></path></svg>