<?xml version="1.0" standalone="no"?><!DOCTYPE svg PUBLIC "-//W3C//DTD SVG 1.1//EN" "http://www.w3.org/Graphics/SVG/1.1/DTD/svg11.dtd"><svg t="1745479643437" class="icon" viewBox="0 0 1088 1024" version="1.1" xmlns="http://www.w3.org/2000/svg" p-id="6703" xmlns:xlink="http://www.w3.org/1999/xlink" width="68" height="64"><path d="M537.6 512m-460.8 0a460.8 460.8 0 1 0 921.6 0 460.8 460.8 0 1 0-921.6 0Z" fill="#E9F3FF" p-id="6704"></path><path d="M537.6 998.4C268.8 998.4 51.2 780.8 51.2 512 51.2 243.2 268.8 25.6 537.6 25.6 806.4 25.6 1024 243.2 1024 512c0 268.8-217.6 486.4-486.4 486.4z m0-921.6c-236.8 0-435.2 192-435.2 435.2s192 435.2 435.2 435.2 428.8-192 428.8-435.2-192-435.2-428.8-435.2z" fill="#A4CEFF" p-id="6705"></path><path d="M460.8 390.4c0-6.4 6.4-6.4 12.8 0L576 620.8c0 6.4 0 6.4-6.4 6.4H448c-6.4 0-19.2 6.4-19.2 12.8l-19.2 38.4c-6.4 12.8 0 19.2 12.8 19.2h204.8c25.6 0 44.8-32 38.4-57.6L499.2 281.6c-12.8-32-57.6-32-70.4 0l-185.6 403.2c0 6.4 6.4 19.2 12.8 19.2h44.8c6.4 0 19.2-6.4 19.2-12.8l140.8-300.8z m307.2 300.8c6.4 6.4 12.8 12.8 19.2 12.8h44.8c12.8 0 19.2-12.8 12.8-19.2l-185.6-416c-6.4-6.4-12.8-12.8-19.2-12.8h-44.8c-12.8 0-19.2 12.8-12.8 19.2l185.6 416z" fill="#258AFF" p-id="6706"></path><path d="M947.2 832l76.8-32c38.4-12.8 38.4-70.4 0-89.6l-76.8-32-32-76.8c-12.8-38.4-70.4-38.4-89.6 0l-32 76.8-76.8 32c-38.4 12.8-38.4 70.4 0 89.6l76.8 32 32 76.8c12.8 38.4 70.4 38.4 89.6 0l32-76.8z" fill="#258AFF" p-id="6707"></path><path d="M870.4 972.8c-32 0-64-19.2-76.8-51.2l-25.6-64-64-25.6c-32-12.8-51.2-38.4-51.2-76.8 0-32 19.2-64 51.2-76.8l64-25.6 25.6-64c12.8-32 38.4-51.2 76.8-51.2 32 0 64 19.2 76.8 51.2l25.6 64 64 25.6c32 12.8 51.2 38.4 51.2 76.8 0 32-19.2 64-51.2 76.8l-64 25.6-25.6 64c-12.8 32-44.8 51.2-76.8 51.2z m0-371.2s-12.8 0-12.8 12.8l-32 76.8-19.2 19.2-76.8 32-12.8 12.8s0 12.8 12.8 12.8l76.8 32 19.2 19.2 32 76.8 12.8 12.8s12.8 0 12.8-12.8l32-76.8 19.2-19.2 76.8-32c12.8 0 12.8-12.8 12.8-12.8s0-12.8-12.8-12.8l-76.8-32-19.2-19.2-32-76.8c0-12.8-12.8-12.8-12.8-12.8z" fill="#FFFFFF" p-id="6708"></path></svg>