<?xml version="1.0" standalone="no"?><!DOCTYPE svg PUBLIC "-//W3C//DTD SVG 1.1//EN" "http://www.w3.org/Graphics/SVG/1.1/DTD/svg11.dtd"><svg t="1745478283405" class="icon" viewBox="0 0 1024 1024" version="1.1" xmlns="http://www.w3.org/2000/svg" p-id="16696" xmlns:xlink="http://www.w3.org/1999/xlink" width="64" height="64"><path d="M831.146667 378.88c-30.72-8.533333-100.693333-8.533333-204.8-10.24 5.12-22.186667 6.826667-42.666667 6.826666-80.213333 0-87.04-52.906667-163.84-109.226666-163.84-39.253333 0-71.68 32.426667-73.386667 71.68 0 49.493333-25.6 133.12-107.52 175.786666-5.12 3.413333-22.186667 11.946667-25.6 11.946667l1.706667 1.706667c-11.946667-10.24-30.72-18.773333-47.786667-18.773334h-73.386667c-39.253333 0-73.386667 32.426667-73.386666 73.386667v387.413333c0 39.253333 32.426667 71.68 73.386666 71.68h73.386667c29.013333 0 52.906667-17.066667 64.853333-40.96h1.706667c1.706667 0 3.413333 1.706667 5.12 1.706667h1.706667c13.653333 3.413333 40.96 10.24 97.28 23.893333 11.946667 3.413333 76.8 17.066667 145.066666 17.066667H716.8c40.96 0 69.973333-15.36 87.04-46.08 0 0 5.12-11.946667 10.24-25.6 3.413333-10.24 5.12-27.306667 0-42.666667 25.6-17.066667 34.133333-44.373333 39.253333-63.146666 8.533333-29.013333 6.826667-51.2 0-66.56 15.36-13.653333 27.306667-34.133333 32.426667-66.56 3.413333-20.48 0-40.96-10.24-58.026667 13.653333-15.36 20.48-34.133333 20.48-52.906667v-5.12V459.093333c1.706667-30.72-20.48-68.266667-64.853333-80.213333zM295.253333 826.026667c0 13.653333-10.24 23.893333-23.893333 23.893333h-73.386667c-13.653333 0-23.893333-10.24-23.893333-23.893333V440.32c0-13.653333 10.24-23.893333 23.893333-23.893333h73.386667c13.653333 0 23.893333 10.24 23.893333 23.893333v385.706667z m554.666667-349.866667c0 11.946667-5.12 35.84-47.786667 35.84h-40.96c-6.826667 0-11.946667 5.12-11.946666 11.946667 0 6.826667 5.12 11.946667 11.946666 11.946666H802.133333c35.84 0 40.96 30.72 39.253334 44.373334-3.413333 18.773333-11.946667 52.906667-52.906667 52.906666h-58.026667c-6.826667 0-11.946667 5.12-11.946666 11.946667 0 6.826667 5.12 11.946667 11.946666 11.946667h47.786667c40.96 0 37.546667 30.72 30.72 49.493333-8.533333 23.893333-11.946667 47.786667-63.146667 47.786667h-39.253333c-6.826667 0-11.946667 5.12-11.946667 11.946666 0 6.826667 5.12 11.946667 11.946667 11.946667h37.546667c27.306667 0 27.306667 25.6 25.6 34.133333-3.413333 10.24-6.826667 17.066667-6.826667 17.066667-6.826667 13.653333-18.773333 20.48-44.373333 20.48h-131.413334c-66.56 0-133.12-15.36-133.12-15.36-100.693333-23.893333-105.813333-25.6-112.64-27.306667 0 0-20.48-3.413333-20.48-20.48V452.266667c0-11.946667 6.826667-22.186667 18.773334-25.6 1.706667 0 3.413333-1.706667 5.12-1.706667 110.933333-46.08 155.306667-146.773333 155.306666-228.693333 0-11.946667 8.533333-23.893333 23.893334-23.893334 25.6 0 59.733333 51.2 59.733333 114.346667 0 58.026667-1.706667 66.56-22.186667 126.293333 242.346667 0 240.64 3.413333 261.12 8.533334 27.306667 6.826667 29.013333 29.013333 29.013334 37.546666-1.706667 10.24-1.706667 8.533333-1.706667 17.066667z" p-id="16697"></path></svg>