<?xml version="1.0" standalone="no"?><!DOCTYPE svg PUBLIC "-//W3C//DTD SVG 1.1//EN" "http://www.w3.org/Graphics/SVG/1.1/DTD/svg11.dtd"><svg t="1747386618997" class="icon" viewBox="0 0 1024 1024" version="1.1" xmlns="http://www.w3.org/2000/svg" p-id="6396" xmlns:xlink="http://www.w3.org/1999/xlink" width="200" height="200"><path d="M749.5 152.3l121.1 121.1c22.3 22.3 22.3 58.4 0 80.7L749.5 475.2c-22.3 22.3-58.4 22.3-80.7 0L547.7 354.1c-22.3-22.3-22.3-58.4 0-80.7l121.1-121.1c22.2-22.3 58.4-22.3 80.7 0z" fill="#6DAFFF" p-id="6397"></path><path d="M623.5 551.5h171.2c31.5 0 57.1 25.6 57.1 57.1v171.2c0 31.5-25.6 57.1-57.1 57.1H623.5c-31.5 0-57.1-25.6-57.1-57.1V608.6c0-31.5 25.6-57.1 57.1-57.1zM243 171h171.2c31.5 0 57.1 25.6 57.1 57.1v171.2c0 31.5-25.6 57.1-57.1 57.1H243c-31.5 0-57.1-25.6-57.1-57.1V228.1c0-31.5 25.6-57.1 57.1-57.1zM243 551.5h171.2c31.5 0 57.1 25.6 57.1 57.1v171.2c0 31.5-25.6 57.1-57.1 57.1H243c-31.5 0-57.1-25.6-57.1-57.1V608.6c0-31.5 25.6-57.1 57.1-57.1z" fill="#2E83E5" p-id="6398"></path></svg>