<?xml version="1.0" standalone="no"?><!DOCTYPE svg PUBLIC "-//W3C//DTD SVG 1.1//EN" "http://www.w3.org/Graphics/SVG/1.1/DTD/svg11.dtd"><svg t="1744709661306" class="icon" viewBox="0 0 1024 1024" version="1.1" xmlns="http://www.w3.org/2000/svg" p-id="71221" xmlns:xlink="http://www.w3.org/1999/xlink" width="64" height="64"><path d="M880.737 64.051H174.314c-25.795 0-43.83 23.388-43.83 46.752h696.125c18.035 0 33.503 16.381 33.503 30.411v301.411c20.128 15.253 37.564 33.366 51.581 53.653V92.106c-2.589-16.363-15.487-28.055-30.956-28.055zM695.866 271.522H231.624c-10.303 0-18.04 7.024-18.04 16.359v16.386c0 9.335 7.713 16.358 18.04 16.358h464.242c10.308 0 18.039-7.023 18.039-16.358v-16.386c0-9.335-7.731-16.359-18.039-16.359z m93.088-130.507h-649.47c-19.883 0-36 16.118-36 36v744.161c0 19.882 16.117 36 36 36h407.458v-64.1H159.584V203.315h609.37V398.95c19.775 5.05 38.554 12.284 56 21.406V177.015c0-19.883-16.118-36-36-36zM516.813 767.136H231.624c-10.303 0-18.04 7.023-18.04 16.358v16.386c0 9.335 7.713 16.359 18.04 16.359h304.242c4.257 0 8.062-1.212 11.076-3.276v-19.591a239.36 239.36 0 0 1-30.129-26.236zM213.584 634.754c0 9.335 7.713 16.359 18.04 16.359h225.769a206.956 206.956 0 0 1-2.818-34.099c0-5.044 0.2-10.044 0.555-15.005H231.624c-10.303 0-18.04 7.023-18.04 16.358v16.387z m280.172-140.002c12.79-18.189 28.35-34.594 46.135-48.719a21.398 21.398 0 0 0-4.024-0.384H231.624c-10.303 0-18.04 7.023-18.04 16.358v16.386c0 9.335 7.713 16.359 18.04 16.359h262.132z" fill="#333333" p-id="71222"></path><path d="M715 447.008c-112.114 0-203 86.771-203 193.81-0.054 58.688 27.802 114.22 75.724 150.974v151.802c-0.146 17.208 14.343 31.28 32.372 31.429 0.423 0 0.836-0.046 1.254-0.062 5.861 0.062 11.637-1.392 16.706-4.204l76.789-42.631 75.905 42.068c0.102 0.057 0.203 0.097 0.3 0.147 10.153 5.981 22.895 6.242 33.305 0.69 10.41-5.555 16.851-16.056 16.835-27.443V792.63c48.569-36.733 76.864-92.659 76.811-151.813C918 533.779 827.114 447.008 715 447.008z m0 324.762c-75.75 0-137.162-58.632-137.162-130.952 0-72.319 61.412-130.953 137.162-130.953 75.755 0 137.162 58.633 137.162 130.953S790.755 771.77 715 771.77z" fill="#333333" p-id="71223"></path><path d="M715 735.103c-54.543 0-98.757-42.212-98.757-94.285s44.214-94.286 98.757-94.286 98.757 42.213 98.757 94.286-44.214 94.285-98.757 94.285z" fill="#333333" p-id="71224"></path><path d="M715 609.389c-18.18 0-32.919 14.072-32.919 31.429S696.82 672.246 715 672.246s32.919-14.072 32.919-31.429S733.18 609.389 715 609.389z" fill="#333333" p-id="71225"></path></svg>