<?xml version="1.0" standalone="no"?><!DOCTYPE svg PUBLIC "-//W3C//DTD SVG 1.1//EN" "http://www.w3.org/Graphics/SVG/1.1/DTD/svg11.dtd"><svg t="1744709562729" class="icon" viewBox="0 0 1024 1024" version="1.1" xmlns="http://www.w3.org/2000/svg" p-id="64888" xmlns:xlink="http://www.w3.org/1999/xlink" width="64" height="64"><path d="M444.83 883.91H271.06c-38.53 0-69.88-31.35-69.88-69.88V193.99c0-38.53 31.35-69.88 69.88-69.88h357.63v51.35c0 59.3 48.26 107.55 107.57 107.55h81.28v191.27c0 15.73 12.75 28.49 28.49 28.49s28.49-12.76 28.49-28.49V249.06a47.8 47.8 0 0 0-16.12-35.78L706.79 79.11a47.824 47.824 0 0 0-31.66-11.98H271.06c-69.95 0-126.86 56.91-126.86 126.86v620.05c0 69.95 56.91 126.86 126.86 126.86h173.77c15.74 0 28.49-12.76 28.49-28.49 0-15.74-12.76-28.5-28.49-28.5z m342-657.89h-50.56c-27.89 0-50.59-22.69-50.59-50.57v-38.94l101.15 89.51z" fill="#2c2c2c" p-id="64889"></path><path d="M711.36 326.82h-404c-15.74 0-28.49 12.76-28.49 28.49v4.27c0 15.74 12.76 28.49 28.49 28.49h403.99c15.74 0 28.49-12.76 28.49-28.49v-4.27c0.01-15.73-12.75-28.49-28.48-28.49zM500.09 678.1H307.36c-15.74 0-28.49 12.76-28.49 28.49v4.28c0 15.73 12.76 28.49 28.49 28.49h192.73c15.74 0 28.49-12.76 28.49-28.49v-4.28c0-15.74-12.75-28.49-28.49-28.49zM500.09 502.46H307.36c-15.74 0-28.49 12.76-28.49 28.49v4.28c0 15.73 12.76 28.49 28.49 28.49h192.73c15.74 0 28.49-12.76 28.49-28.49v-4.28c0-15.73-12.75-28.49-28.49-28.49zM711.29 725.18c38.93 0 70.59-31.66 70.59-70.58s-31.66-70.58-70.59-70.58c-38.92 0-70.58 31.66-70.58 70.58s31.67 70.58 70.58 70.58z m0-93.68c12.74 0 23.1 10.37 23.1 23.09 0 12.73-10.36 23.09-23.1 23.09-12.73 0-23.09-10.37-23.09-23.09s10.36-23.09 23.09-23.09z" fill="#2c2c2c" p-id="64890"></path><path d="M849.06 708.19c-0.35-2.47-1.37-4.64-2.39-6.78 5.1-14.69 8-30.4 8-46.81 0-79.06-64.32-143.39-143.38-143.39S567.91 575.54 567.91 654.6c0 16.41 2.91 32.12 8.01 46.82-1.02 2.14-2.05 4.3-2.4 6.77l-30.66 216.85c-1.52 10.78 3.35 21.57 12.42 27.51 4.67 3.04 9.92 4.58 15.19 4.58 5.04 0 10.07-1.39 14.6-4.19l126.23-77.98 126.23 77.98c4.53 2.8 9.56 4.19 14.59 4.19 5.27 0 10.54-1.54 15.19-4.58 9.07-5.94 13.94-16.73 12.42-27.49l-30.67-216.87zM711.29 558.7c52.88 0 95.89 43.02 95.89 95.9 0 52.87-43.02 95.88-95.89 95.88s-95.89-43.02-95.89-95.88c0-52.89 43.02-95.9 95.89-95.9z m13.02 268.49c-4.04-2.49-8.52-3.19-12.95-3.08-4.47-0.12-8.99 0.57-13.08 3.08L595.7 890.55l18.49-130.77c25.57 23.62 59.63 38.19 97.1 38.19 37.48 0 71.53-14.57 97.1-38.19l18.49 130.77-102.57-63.36z" fill="#2c2c2c" p-id="64891"></path></svg>